<svg width="1713" height="1186" viewBox="0 0 1713 1186" fill="none" xmlns="http://www.w3.org/2000/svg">
<path d="M1389 375.7C1372 282.2 1328.1 199.8 1261.7 137.1C1179.2 60.1 1069.3 16 960.2 16C845.5 16 733.3 62.4 652.2 143.4C569.1 226.3 524.9 337.2 524.5 463.9C524.5 478 524.6 492.1 524.8 506.2C525.1 531.2 525.4 554.8 524.4 578.2C521.5 647.3 505.7 697 476.1 729.9C441.6 768.3 392.3 790.3 340.8 790.3C240.6 790.3 159 708.8 159 608.5H20.3C20.3 785.2 164.1 928.9 340.8 928.9C431.7 928.9 518.6 890.1 579.3 822.4C631.3 764.5 658.6 686.5 662.9 583.9C664 556.8 663.7 530.1 663.4 504.4C663.2 491 663.1 477.7 663.1 464.3C663.4 375 693.5 297.9 750.1 241.4C805.4 186.2 882 154.6 960.2 154.6C1034.6 154.6 1110 185.2 1166.8 238.1C1210.6 279.5 1241 337.1 1252.5 400.1C1262.3 455.3 1265.7 514.4 1262.4 571.3H1401.3C1404.5 505.7 1400.4 440 1389 375.7Z" fill="#000"/>
<path d="M771.5 608.5C771 632.3 756.1 998.3 340.9 1034.8L353 1173C637.7 1148 774.6 995.6 839.3 872.2C908.4 740.4 910.1 614.3 910.1 609L856.2 608.5H771.5Z" fill="#000"/>
<path d="M1375.5 790.4C1275.2 790.4 1193.7 708.8 1193.7 608.6H1055C1055 785.3 1198.8 929.1 1375.5 929.1C1552.2 929.1 1696 785.3 1696 608.6H1557.3C1557.3 708.8 1475.8 790.4 1375.5 790.4Z" fill="#000"/>
</svg>
